<svg width="148" height="205" viewBox="0 0 148 205" fill="none" xmlns="http://www.w3.org/2000/svg">
<g opacity="0.5">
<path opacity="0.5" d="M144.407 6.56481C146.22 6.56481 147.69 5.09523 147.69 3.2824C147.69 1.46958 146.22 0 144.407 0C142.595 0 141.125 1.46958 141.125 3.2824C141.125 5.09523 142.595 6.56481 144.407 6.56481Z" fill="#3EA74F"/>
<path opacity="0.5" d="M144.407 34.7972C146.22 34.7972 147.69 33.3276 147.69 31.5148C147.69 29.7019 146.22 28.2324 144.407 28.2324C142.595 28.2324 141.125 29.7019 141.125 31.5148C141.125 33.3276 142.595 34.7972 144.407 34.7972Z" fill="#3EA74F"/>
<path opacity="0.5" d="M144.407 63.0111C146.22 63.0111 147.69 61.5415 147.69 59.7287C147.69 57.9159 146.22 56.4463 144.407 56.4463C142.595 56.4463 141.125 57.9159 141.125 59.7287C141.125 61.5415 142.595 63.0111 144.407 63.0111Z" fill="#3EA74F"/>
<path opacity="0.5" d="M144.407 91.2435C146.22 91.2435 147.69 89.7739 147.69 87.9611C147.69 86.1482 146.22 84.6786 144.407 84.6786C142.595 84.6786 141.125 86.1482 141.125 87.9611C141.125 89.7739 142.595 91.2435 144.407 91.2435Z" fill="#3EA74F"/>
<path opacity="0.5" d="M144.407 119.457C146.22 119.457 147.69 117.988 147.69 116.175C147.69 114.362 146.22 112.893 144.407 112.893C142.595 112.893 141.125 114.362 141.125 116.175C141.125 117.988 142.595 119.457 144.407 119.457Z" fill="#3EA74F"/>
<path opacity="0.5" d="M144.407 147.69C146.22 147.69 147.69 146.22 147.69 144.407C147.69 142.595 146.22 141.125 144.407 141.125C142.595 141.125 141.125 142.595 141.125 144.407C141.125 146.22 142.595 147.69 144.407 147.69Z" fill="#3EA74F"/>
<path opacity="0.5" d="M144.407 175.904C146.22 175.904 147.69 174.434 147.69 172.621C147.69 170.809 146.22 169.339 144.407 169.339C142.595 169.339 141.125 170.809 141.125 172.621C141.125 174.434 142.595 175.904 144.407 175.904Z" fill="#3EA74F"/>
<path opacity="0.5" d="M144.407 204.118C142.6 204.118 141.125 202.642 141.125 200.835C141.125 199.028 142.6 197.553 144.407 197.553C146.215 197.553 147.69 199.028 147.69 200.835C147.69 202.661 146.215 204.118 144.407 204.118Z" fill="#3EA74F"/>
<path opacity="0.5" d="M116.193 6.56481C114.386 6.56481 112.911 5.08957 112.911 3.2824C112.911 1.47524 114.386 0 116.193 0C118.001 0 119.476 1.47524 119.476 3.2824C119.457 5.08957 118.001 6.56481 116.193 6.56481Z" fill="#3EA74F"/>
<path opacity="0.5" d="M116.193 34.7787C114.386 34.7787 112.911 33.3035 112.911 31.4963C112.911 29.6892 114.386 28.2139 116.193 28.2139C118.001 28.2139 119.476 29.6892 119.476 31.4963C119.457 33.3219 118.001 34.7787 116.193 34.7787Z" fill="#3EA74F"/>
<path opacity="0.5" d="M116.193 63.0111C114.386 63.0111 112.911 61.5359 112.911 59.7287C112.911 57.9215 114.386 56.4463 116.193 56.4463C118.001 56.4463 119.476 57.9215 119.476 59.7287C119.457 61.5359 118.001 63.0111 116.193 63.0111Z" fill="#3EA74F"/>
<path opacity="0.5" d="M116.193 91.2251C114.386 91.2251 112.911 89.7498 112.911 87.9426C112.911 86.1355 114.386 84.6602 116.193 84.6602C118.001 84.6602 119.476 86.1355 119.476 87.9426C119.457 89.7682 118.001 91.2251 116.193 91.2251Z" fill="#3EA74F"/>
<path opacity="0.5" d="M116.193 119.457C114.386 119.457 112.911 117.982 112.911 116.175C112.911 114.368 114.386 112.893 116.193 112.893C118.001 112.893 119.476 114.368 119.476 116.175C119.457 117.982 118.001 119.457 116.193 119.457Z" fill="#3EA74F"/>
<path opacity="0.5" d="M116.193 147.671C114.386 147.671 112.911 146.196 112.911 144.389C112.911 142.582 114.386 141.107 116.193 141.107C118.001 141.107 119.476 142.582 119.476 144.389C119.476 146.196 118.001 147.671 116.193 147.671Z" fill="#3EA74F"/>
<path opacity="0.5" d="M116.193 175.904C114.386 175.904 112.911 174.429 112.911 172.621C112.911 170.814 114.386 169.339 116.193 169.339C118.001 169.339 119.476 170.814 119.476 172.621C119.476 174.429 118.001 175.904 116.193 175.904Z" fill="#3EA74F"/>
<path opacity="0.5" d="M116.193 204.118C114.386 204.118 112.911 202.642 112.911 200.835C112.911 199.028 114.386 197.553 116.193 197.553C118.001 197.553 119.476 199.028 119.476 200.835C119.457 202.661 118.001 204.118 116.193 204.118Z" fill="#3EA74F"/>
<path opacity="0.5" d="M87.9611 6.56481C89.7739 6.56481 91.2436 5.09523 91.2436 3.2824C91.2436 1.46958 89.7739 0 87.9611 0C86.1483 0 84.6788 1.46958 84.6788 3.2824C84.6788 5.09523 86.1483 6.56481 87.9611 6.56481Z" fill="#3EA74F"/>
<path opacity="0.5" d="M87.9611 34.7972C89.7739 34.7972 91.2436 33.3276 91.2436 31.5148C91.2436 29.7019 89.7739 28.2324 87.9611 28.2324C86.1483 28.2324 84.6788 29.7019 84.6788 31.5148C84.6788 33.3276 86.1483 34.7972 87.9611 34.7972Z" fill="#3EA74F"/>
<path opacity="0.5" d="M87.9611 63.0111C89.7739 63.0111 91.2436 61.5415 91.2436 59.7287C91.2436 57.9159 89.7739 56.4463 87.9611 56.4463C86.1483 56.4463 84.6788 57.9159 84.6788 59.7287C84.6788 61.5415 86.1483 63.0111 87.9611 63.0111Z" fill="#3EA74F"/>
<path opacity="0.5" d="M87.9611 91.2435C89.7739 91.2435 91.2436 89.7739 91.2436 87.9611C91.2436 86.1482 89.7739 84.6786 87.9611 84.6786C86.1483 84.6786 84.6788 86.1482 84.6788 87.9611C84.6788 89.7739 86.1483 91.2435 87.9611 91.2435Z" fill="#3EA74F"/>
<path opacity="0.5" d="M87.9611 119.457C89.7739 119.457 91.2436 117.988 91.2436 116.175C91.2436 114.362 89.7739 112.893 87.9611 112.893C86.1483 112.893 84.6788 114.362 84.6788 116.175C84.6788 117.988 86.1483 119.457 87.9611 119.457Z" fill="#3EA74F"/>
<path opacity="0.5" d="M87.9611 147.69C89.7739 147.69 91.2436 146.22 91.2436 144.407C91.2436 142.595 89.7739 141.125 87.9611 141.125C86.1483 141.125 84.6788 142.595 84.6788 144.407C84.6788 146.22 86.1483 147.69 87.9611 147.69Z" fill="#3EA74F"/>
<path opacity="0.5" d="M87.9611 175.904C89.7739 175.904 91.2436 174.434 91.2436 172.621C91.2436 170.809 89.7739 169.339 87.9611 169.339C86.1483 169.339 84.6788 170.809 84.6788 172.621C84.6788 174.434 86.1483 175.904 87.9611 175.904Z" fill="#3EA74F"/>
<path opacity="0.5" d="M87.9611 204.118C86.154 204.118 84.6788 202.642 84.6788 200.835C84.6788 199.028 86.154 197.553 87.9611 197.553C89.7683 197.553 91.2436 199.028 91.2436 200.835C91.2436 202.661 89.7683 204.118 87.9611 204.118Z" fill="#3EA74F"/>
<path opacity="0.5" d="M59.7288 6.56481C61.5416 6.56481 63.0112 5.09523 63.0112 3.2824C63.0112 1.46958 61.5416 0 59.7288 0C57.9159 0 56.4464 1.46958 56.4464 3.2824C56.4464 5.09523 57.9159 6.56481 59.7288 6.56481Z" fill="#3EA74F"/>
<path opacity="0.5" d="M59.7288 34.7972C61.5416 34.7972 63.0112 33.3276 63.0112 31.5148C63.0112 29.7019 61.5416 28.2324 59.7288 28.2324C57.9159 28.2324 56.4464 29.7019 56.4464 31.5148C56.4464 33.3276 57.9159 34.7972 59.7288 34.7972Z" fill="#3EA74F"/>
<path opacity="0.5" d="M59.7288 63.0111C61.5416 63.0111 63.0112 61.5415 63.0112 59.7287C63.0112 57.9159 61.5416 56.4463 59.7288 56.4463C57.9159 56.4463 56.4464 57.9159 56.4464 59.7287C56.4464 61.5415 57.9159 63.0111 59.7288 63.0111Z" fill="#3EA74F"/>
<path opacity="0.5" d="M59.7288 91.2435C61.5416 91.2435 63.0112 89.7739 63.0112 87.9611C63.0112 86.1482 61.5416 84.6786 59.7288 84.6786C57.9159 84.6786 56.4464 86.1482 56.4464 87.9611C56.4464 89.7739 57.9159 91.2435 59.7288 91.2435Z" fill="#3EA74F"/>
<path opacity="0.5" d="M59.7288 119.457C61.5416 119.457 63.0112 117.988 63.0112 116.175C63.0112 114.362 61.5416 112.893 59.7288 112.893C57.9159 112.893 56.4464 114.362 56.4464 116.175C56.4464 117.988 57.9159 119.457 59.7288 119.457Z" fill="#3EA74F"/>
<path opacity="0.5" d="M59.7288 147.69C61.5416 147.69 63.0112 146.22 63.0112 144.407C63.0112 142.595 61.5416 141.125 59.7288 141.125C57.9159 141.125 56.4464 142.595 56.4464 144.407C56.4464 146.22 57.9159 147.69 59.7288 147.69Z" fill="#3EA74F"/>
<path opacity="0.5" d="M59.7288 175.904C61.5416 175.904 63.0112 174.434 63.0112 172.621C63.0112 170.809 61.5416 169.339 59.7288 169.339C57.9159 169.339 56.4464 170.809 56.4464 172.621C56.4464 174.434 57.9159 175.904 59.7288 175.904Z" fill="#3EA74F"/>
<path opacity="0.5" d="M59.7288 204.118C57.9216 204.118 56.4464 202.642 56.4464 200.835C56.4464 199.028 57.9216 197.553 59.7288 197.553C61.5359 197.553 63.0112 199.028 63.0112 200.835C63.0112 202.661 61.5544 204.118 59.7288 204.118Z" fill="#3EA74F"/>
<path opacity="0.5" d="M31.5148 6.56481C33.3276 6.56481 34.7972 5.09523 34.7972 3.2824C34.7972 1.46958 33.3276 0 31.5148 0C29.702 0 28.2324 1.46958 28.2324 3.2824C28.2324 5.09523 29.702 6.56481 31.5148 6.56481Z" fill="#3EA74F"/>
<path opacity="0.5" d="M31.5148 34.7972C33.3276 34.7972 34.7972 33.3276 34.7972 31.5148C34.7972 29.7019 33.3276 28.2324 31.5148 28.2324C29.702 28.2324 28.2324 29.7019 28.2324 31.5148C28.2324 33.3276 29.702 34.7972 31.5148 34.7972Z" fill="#3EA74F"/>
<path opacity="0.5" d="M31.5148 63.0111C33.3276 63.0111 34.7972 61.5415 34.7972 59.7287C34.7972 57.9159 33.3276 56.4463 31.5148 56.4463C29.702 56.4463 28.2324 57.9159 28.2324 59.7287C28.2324 61.5415 29.702 63.0111 31.5148 63.0111Z" fill="#3EA74F"/>
<path opacity="0.5" d="M31.5148 91.2435C33.3276 91.2435 34.7972 89.7739 34.7972 87.9611C34.7972 86.1482 33.3276 84.6786 31.5148 84.6786C29.702 84.6786 28.2324 86.1482 28.2324 87.9611C28.2324 89.7739 29.702 91.2435 31.5148 91.2435Z" fill="#3EA74F"/>
<path opacity="0.5" d="M31.5148 119.457C33.3276 119.457 34.7972 117.988 34.7972 116.175C34.7972 114.362 33.3276 112.893 31.5148 112.893C29.702 112.893 28.2324 114.362 28.2324 116.175C28.2324 117.988 29.702 119.457 31.5148 119.457Z" fill="#3EA74F"/>
<path opacity="0.5" d="M31.5148 147.69C33.3276 147.69 34.7972 146.22 34.7972 144.407C34.7972 142.595 33.3276 141.125 31.5148 141.125C29.702 141.125 28.2324 142.595 28.2324 144.407C28.2324 146.22 29.702 147.69 31.5148 147.69Z" fill="#3EA74F"/>
<path opacity="0.5" d="M31.5148 175.904C33.3276 175.904 34.7972 174.434 34.7972 172.621C34.7972 170.809 33.3276 169.339 31.5148 169.339C29.702 169.339 28.2324 170.809 28.2324 172.621C28.2324 174.434 29.702 175.904 31.5148 175.904Z" fill="#3EA74F"/>
<path opacity="0.5" d="M31.5148 204.118C29.7077 204.118 28.2324 202.642 28.2324 200.835C28.2324 199.028 29.7077 197.553 31.5148 197.553C33.322 197.553 34.7972 199.028 34.7972 200.835C34.7972 202.661 33.322 204.118 31.5148 204.118Z" fill="#3EA74F"/>
<path opacity="0.5" d="M3.28246 6.56481C5.09528 6.56481 6.56481 5.09523 6.56481 3.2824C6.56481 1.46958 5.09528 0 3.28246 0C1.46964 0 0 1.46958 0 3.2824C0 5.09523 1.46964 6.56481 3.28246 6.56481Z" fill="#3EA74F"/>
<path opacity="0.5" d="M3.28246 34.7972C5.09528 34.7972 6.56481 33.3276 6.56481 31.5148C6.56481 29.7019 5.09528 28.2324 3.28246 28.2324C1.46964 28.2324 0 29.7019 0 31.5148C0 33.3276 1.46964 34.7972 3.28246 34.7972Z" fill="#3EA74F"/>
<path opacity="0.5" d="M3.28246 63.0111C5.09528 63.0111 6.56481 61.5415 6.56481 59.7287C6.56481 57.9159 5.09528 56.4463 3.28246 56.4463C1.46964 56.4463 0 57.9159 0 59.7287C0 61.5415 1.46964 63.0111 3.28246 63.0111Z" fill="#3EA74F"/>
<path opacity="0.5" d="M3.28246 91.2435C5.09528 91.2435 6.56481 89.7739 6.56481 87.9611C6.56481 86.1482 5.09528 84.6786 3.28246 84.6786C1.46964 84.6786 0 86.1482 0 87.9611C0 89.7739 1.46964 91.2435 3.28246 91.2435Z" fill="#3EA74F"/>
<path opacity="0.5" d="M3.28246 119.457C5.09528 119.457 6.56481 117.988 6.56481 116.175C6.56481 114.362 5.09528 112.893 3.28246 112.893C1.46964 112.893 0 114.362 0 116.175C0 117.988 1.46964 119.457 3.28246 119.457Z" fill="#3EA74F"/>
<path opacity="0.5" d="M3.28246 147.69C5.09528 147.69 6.56481 146.22 6.56481 144.407C6.56481 142.595 5.09528 141.125 3.28246 141.125C1.46964 141.125 0 142.595 0 144.407C0 146.22 1.46964 147.69 3.28246 147.69Z" fill="#3EA74F"/>
<path opacity="0.5" d="M3.28246 175.904C5.09528 175.904 6.56481 174.434 6.56481 172.621C6.56481 170.809 5.09528 169.339 3.28246 169.339C1.46964 169.339 0 170.809 0 172.621C0 174.434 1.46964 175.904 3.28246 175.904Z" fill="#3EA74F"/>
<path opacity="0.5" d="M3.28246 204.118C1.47529 204.118 0 202.642 0 200.835C0 199.028 1.47529 197.553 3.28246 197.553C5.08963 197.553 6.56481 199.028 6.56481 200.835C6.56481 202.661 5.08963 204.118 3.28246 204.118Z" fill="#3EA74F"/>
</g>
</svg>
