<svg width="17" height="16" viewBox="0 0 17 16" fill="none" xmlns="http://www.w3.org/2000/svg">
<path d="M15.757 11.7875L14.1288 10.4719C13.5773 10.0245 12.7894 9.99797 12.2116 10.4192L10.6622 11.5507C10.4521 11.7085 10.1634 11.6822 9.97935 11.498L7.43192 9.18254L5.0946 6.60391C4.91076 6.41972 4.8845 6.13028 5.04207 5.91978L6.17134 4.36734C6.59154 3.78847 6.56527 2.99909 6.11882 2.44652L4.80571 0.815145C4.22795 0.0783926 3.12494 0.0257674 2.46839 0.683582L1.05023 2.10446C0.735088 2.42021 0.577515 2.86752 0.577515 3.28853C0.761349 6.63022 2.28455 9.81404 4.51683 12.0506C6.74911 14.2872 9.90056 15.8133 13.2621 15.9975C13.7086 16.0238 14.1288 15.8394 14.4439 15.5236L15.8621 14.103C16.5711 13.4715 16.4923 12.3664 15.757 11.7875Z" fill="white" fill-opacity="0.8"/>
</svg>
