<svg width="29" height="29" viewBox="0 0 29 29" fill="none" xmlns="http://www.w3.org/2000/svg">
<circle cx="14.5" cy="14.5" r="14.5" fill="#D9D9D9"/>
<path d="M18.0107 8.29713C22.0504 8.81714 20.8648 14.6708 20.7524 17.5081C20.6899 19.0682 20.4113 20.2747 18.8012 20.8155C16.6836 21.5269 13.5634 21.2897 11.4042 20.9736C9.96054 20.7655 8.82894 20.3329 8.42956 18.8352C7.79718 16.468 7.97608 13.2645 8.25066 10.8515C8.25901 10.8058 8.27144 10.7725 8.29223 10.7433C8.32962 7.1323 15.9097 8.02673 18.0107 8.29713Z" fill="#01510E"/>
<path d="M19.6873 10.4982C19.6957 9.50383 18.4559 9.18769 17.7902 9.79928C17.6113 9.96566 17.5281 10.2194 17.5156 10.494C17.5822 10.8476 17.7944 11.1971 18.0689 11.3968C18.7139 11.8503 19.679 11.247 19.6873 10.4982Z" fill="white"/>
<path d="M17.8443 12.4323C16.4215 10.2773 13.2097 10.0651 11.4832 11.9747C10.3058 13.2768 10.2226 15.4444 11.1088 16.9837C11.1587 17.0003 11.2045 17.0294 11.2461 17.0794C12.6856 18.6852 15.1651 19.2677 16.9458 17.8116C18.535 16.5094 19.0009 14.1838 17.8443 12.4323Z" fill="white"/>
<path d="M12.1738 15.3863C12.6772 16.8008 14.4662 17.9241 15.8931 17.0504C18.7762 15.2865 15.3898 10.4938 13.0142 12.6197C12.1738 13.1148 11.8452 14.4585 12.1738 15.3863Z" fill="#01510E"/>
</svg>
