<svg width="16" height="14" viewBox="0 0 16 14" fill="none" xmlns="http://www.w3.org/2000/svg">
<path d="M15.4058 7.84312H13.2217V5.74404H15.4058C15.734 5.74404 16 5.47827 16 5.15003C16 4.82175 15.734 4.55582 15.4058 4.55582H13.2217V1.64323C13.2217 1.21807 13.1377 0.90601 12.9721 0.715917C12.8147 0.535077 12.6077 0.450928 12.3211 0.450928C12.0476 0.450928 11.8485 0.534497 11.6941 0.714208C11.5304 0.904495 11.4473 1.21714 11.4473 1.64343V4.55618H7.33893L5.59208 1.9128C5.44258 1.67689 5.30201 1.45591 5.1655 1.2438C5.04259 1.05277 4.92272 0.89724 4.80949 0.781108C4.70925 0.678292 4.59502 0.598721 4.46142 0.537559C4.33536 0.480009 4.17509 0.451121 3.98548 0.451121C3.74364 0.451121 3.52411 0.517377 3.31389 0.653498C3.10588 0.788137 2.96208 0.954597 2.87426 1.16242C2.79717 1.35993 2.75638 1.66258 2.75638 2.05324V4.55599H0.593977C0.26586 4.55602 0 4.82194 0 5.15019C0 5.47843 0.26586 5.7442 0.594009 5.7442H2.75642V7.84351H0.594009C0.26586 7.84351 0 8.10937 0 8.43771C0 8.76586 0.26586 9.03152 0.594009 9.03152H2.75642V12.357C2.75642 12.7695 2.84311 13.0785 3.01483 13.2747C3.17813 13.4619 3.38518 13.5488 3.66635 13.5488C3.93763 13.5488 4.14307 13.4615 4.31343 13.274C4.48789 13.0819 4.57613 12.7732 4.57613 12.357V9.03152H8.29378L10.3056 12.1164C10.4455 12.3204 10.5899 12.5262 10.734 12.728C10.8639 12.9093 11.0057 13.0689 11.1553 13.2023C11.2901 13.323 11.4345 13.4114 11.5847 13.4653C11.7392 13.521 11.9199 13.5492 12.1203 13.5492C12.6644 13.5492 13.2216 13.3826 13.2216 12.1474V9.03152H15.4057C15.7339 9.03152 15.9999 8.76547 15.9999 8.43732C16 8.10917 15.734 7.84312 15.4058 7.84312ZM11.4473 5.744V7.84309H9.51152L8.12448 5.744H11.4473ZM4.57616 3.33208L5.37445 4.55582H4.57616V3.33208ZM4.57616 7.84312V5.74404H6.14959L7.51874 7.84312H4.57616ZM11.4473 10.773L10.2969 9.03152H11.4473V10.773Z" fill="white"/>
</svg>
