<svg width="11" height="11" viewBox="0 0 11 11" fill="none" xmlns="http://www.w3.org/2000/svg">
<path d="M6.03105 0.570475L7.2717 3.08437C7.35797 3.25921 7.52479 3.38036 7.71776 3.40836L10.4921 3.81151C10.9781 3.88218 11.172 4.47922 10.8204 4.82179L8.81294 6.77857C8.67343 6.91464 8.60964 7.11082 8.64268 7.30287L9.11651 10.0659C9.19957 10.5499 8.69156 10.9188 8.25697 10.6905L5.77566 9.38608C5.60311 9.29544 5.39684 9.29544 5.22429 9.38608L2.74298 10.6905C2.30839 10.9191 1.80038 10.5499 1.88344 10.0659L2.35727 7.30287C2.39031 7.11082 2.32652 6.91464 2.18701 6.77857L0.179522 4.82179C-0.172 4.47899 0.0218877 3.88195 0.50787 3.81151L3.28219 3.40836C3.47516 3.38036 3.64198 3.25921 3.72825 3.08437L4.9689 0.570475C5.18597 0.130154 5.81375 0.130154 6.03105 0.570475Z" fill="#ED8A19"/>
</svg>
