<svg width="618" height="471" viewBox="0 0 618 471" fill="none" xmlns="http://www.w3.org/2000/svg">
<path d="M303.542 257.231L303.542 257.231L303.538 257.224C302.678 255.766 302.765 254.647 303.3 253.68C303.886 252.619 305.078 251.624 306.669 250.693C308.239 249.773 310.071 248.986 311.798 248.278C312.082 248.162 312.365 248.047 312.644 247.933C314.021 247.374 315.313 246.85 316.196 246.361L316.196 246.361L316.205 246.356C319.091 244.719 322.209 244.096 325.458 243.446C325.542 243.43 325.627 243.413 325.712 243.396C329 242.738 332.431 242.023 335.49 240.029L335.49 240.029L335.501 240.022C337.83 238.459 340.911 237.818 343.837 238.195C344.475 238.359 345.02 238.517 345.401 238.809C345.83 239.172 345.995 239.74 345.856 240.474C345.714 241.224 345.271 241.983 344.729 242.458C344.105 242.946 343.351 243.312 342.472 243.705C342.362 243.755 342.249 243.805 342.134 243.856C341.364 244.197 340.511 244.576 339.726 245.067L339.722 245.069C338.363 245.929 337.298 247.114 336.386 248.369C335.674 249.35 335.025 250.421 334.405 251.444C334.239 251.718 334.075 251.99 333.912 252.254C332.313 254.856 330.83 256.875 328.501 257.513L328.494 257.515L328.486 257.517C326.93 257.969 325.289 257.71 323.424 257.282C323.173 257.225 322.916 257.164 322.655 257.101C321.064 256.722 319.302 256.302 317.574 256.405L317.573 256.405C316.08 256.496 314.703 256.95 313.429 257.433C313.092 257.561 312.765 257.689 312.445 257.815C311.514 258.181 310.635 258.527 309.705 258.779L309.69 258.783L309.674 258.788C308.517 259.142 307.223 259.226 306.094 258.971C304.975 258.719 304.073 258.15 303.542 257.231Z" stroke="white" stroke-opacity="0.08" stroke-width="2" stroke-miterlimit="10"/>
<path d="M341.288 252.295L341.288 252.295L341.283 252.305C340.905 253.029 340.544 253.775 340.177 254.534C339.563 255.804 338.931 257.111 338.17 258.416C336.982 260.454 335.597 262.259 333.792 263.428C332.112 264.504 330.295 264.887 328.278 264.954C326.631 264.995 324.974 264.705 323.207 264.274C322.4 264.076 321.582 263.853 320.734 263.621C320.653 263.599 320.573 263.577 320.492 263.555C319.565 263.302 318.604 263.042 317.612 262.809C315.844 262.358 314.067 262.061 312.243 262.174C310.185 262.227 308.234 262.729 306.317 263.36C305.443 263.648 304.561 263.969 303.679 264.289C303.592 264.321 303.505 264.352 303.418 264.384C302.442 264.738 301.46 265.091 300.445 265.415L300.44 265.417C294.818 267.25 289.905 265.503 287.877 261.771C287.156 260.444 286.711 259.135 286.526 257.84C286.098 253.76 287.078 248.774 291.476 246.174C292.373 245.645 293.786 245.475 295.52 245.342C295.661 245.332 295.803 245.321 295.947 245.311C296.64 245.259 297.36 245.206 298.035 245.119C298.849 245.015 299.675 244.854 300.395 244.551L300.395 244.551L300.405 244.547C301.882 243.908 303.284 243.272 304.63 242.663C307.107 241.541 309.393 240.505 311.602 239.689L311.602 239.689L311.615 239.684C314.631 238.525 317.428 237.073 320.136 235.668C320.447 235.507 320.756 235.347 321.064 235.187C324.083 233.627 327.019 232.168 330.168 231.182C331.557 230.749 333.122 230.72 334.863 230.718C334.956 230.717 335.05 230.717 335.145 230.717C336.739 230.717 338.48 230.716 340.104 230.312C340.733 230.202 341.214 230.036 341.783 229.731L341.792 229.726L341.802 229.721C345.781 227.473 350.369 226.968 354.493 227.873L354.506 227.876L354.519 227.879C355.628 228.092 356.61 228.484 357.459 229.213L357.637 229.366L357.675 229.375C358.646 230.425 358.99 231.944 358.792 233.542C358.588 235.195 357.82 236.761 356.82 237.69L356.809 237.7L356.798 237.711C355.902 238.595 354.788 239.219 353.531 239.822C353.231 239.966 352.917 240.111 352.596 240.259C351.627 240.706 350.592 241.184 349.657 241.763C348.93 242.203 348.296 242.621 347.683 243.139C344.923 245.421 343.291 248.51 341.818 251.297C341.64 251.635 341.464 251.968 341.288 252.295ZM357.345 228.886C357.345 228.887 357.346 228.89 357.349 228.898C357.346 228.89 357.345 228.886 357.345 228.886Z" stroke="white" stroke-opacity="0.08" stroke-width="2" stroke-miterlimit="10"/>
<path d="M336.539 270.826L336.539 270.826L336.53 270.83C333.759 272.382 330.898 272.595 328.052 272.389C325.805 272.218 323.609 271.662 321.329 270.967C320.529 270.723 319.707 270.458 318.869 270.188C317.364 269.702 315.807 269.2 314.226 268.772C311.897 268.099 309.564 267.825 307.332 267.811L307.322 267.811L307.312 267.811C304.598 267.848 302.002 268.473 299.423 269.296C298.133 269.707 296.834 270.172 295.524 270.642L295.451 270.668C294.16 271.131 292.856 271.599 291.51 272.037C282.309 275.002 275.341 271.94 272.371 266.356C271.35 264.198 270.519 262.116 270.332 260.034L270.331 260.025L270.33 260.015C270.001 256.987 269.896 253.313 270.729 249.893C271.558 246.495 273.298 243.401 276.638 241.394C277.219 241.057 278.082 240.855 279.218 240.766C280.341 240.678 281.613 240.706 282.951 240.749C283.092 240.754 283.234 240.758 283.376 240.763C284.562 240.802 285.787 240.843 286.915 240.8C288.167 240.753 289.414 240.602 290.433 240.169L290.439 240.166C292.491 239.276 294.431 238.375 296.311 237.503C300.139 235.726 303.721 234.064 307.493 232.836C312.167 231.335 316.212 228.715 320.109 226.143C320.253 226.047 320.398 225.952 320.542 225.857C324.32 223.361 327.974 220.947 332.089 219.452L332.093 219.451C333.65 218.879 335.676 219.108 338.042 219.536C338.378 219.597 338.721 219.662 339.07 219.728C341.039 220.101 343.168 220.504 345.03 220.344C345.805 220.286 346.613 220.132 347.379 219.752L347.401 219.741L347.424 219.729C353.194 216.497 359.669 216.077 365.248 217.424C366.891 217.844 368.368 218.44 369.669 219.652L370.108 220.06L370.109 220.06C371.508 221.712 372.02 224.023 371.795 226.378C371.553 228.895 370.484 231.275 369.015 232.683L369.007 232.69L368.999 232.698C367.625 234.072 365.969 234.998 364.145 235.888C363.771 236.071 363.388 236.253 362.998 236.438C361.526 237.137 359.967 237.877 358.522 238.834L358.515 238.839L358.508 238.844C357.674 239.417 356.713 240.139 355.901 240.92C352.141 244.496 349.959 249.12 348.057 253.152C347.85 253.592 347.645 254.025 347.443 254.448L347.439 254.456C347.007 255.379 346.587 256.36 346.152 257.376C345.32 259.318 344.434 261.387 343.308 263.42C341.619 266.472 339.503 269.204 336.539 270.826Z" stroke="white" stroke-opacity="0.08" stroke-width="2" stroke-miterlimit="10"/>
<path d="M353.672 256.737L353.671 256.737C353.118 257.929 352.575 259.22 352.007 260.57C350.944 263.099 349.793 265.838 348.316 268.525C346.08 272.594 343.223 276.275 339.147 278.375C335.497 280.236 331.448 280.313 327.783 279.828C324.944 279.437 322.217 278.614 319.432 277.676C318.767 277.451 318.096 277.22 317.42 276.986C315.296 276.252 313.116 275.499 310.873 274.896C307.896 273.981 305.088 273.583 302.267 273.577L302.265 273.577C296.587 273.578 291.134 275.557 285.245 277.695C284.358 278.017 283.462 278.342 282.553 278.665L282.552 278.666C270.05 283.122 260.903 278.413 257 270.938L256.996 270.931L256.992 270.924C255.496 268.17 254.509 265.27 254.191 262.344C253.764 258.376 253.41 253.326 254.324 248.584C255.235 243.862 257.382 239.544 261.888 236.865L261.889 236.864C262.68 236.392 263.876 236.153 265.437 236.096C266.976 236.041 268.727 236.165 270.551 236.313C270.739 236.328 270.929 236.343 271.119 236.359C272.741 236.492 274.401 236.628 275.917 236.637C277.593 236.647 279.233 236.507 280.526 235.954L280.53 235.952C283.319 234.745 285.975 233.485 288.553 232.263C289.8 231.671 291.029 231.089 292.246 230.525C295.995 228.787 299.668 227.209 303.564 226.015C309.54 224.213 314.575 220.625 319.403 217.042C319.738 216.794 320.071 216.546 320.404 216.298C324.917 212.939 329.29 209.684 334.274 207.725C335.176 207.379 336.259 207.313 337.52 207.459C338.782 207.604 340.151 207.953 341.595 208.373C342.096 208.519 342.612 208.676 343.134 208.834C344.081 209.121 345.046 209.414 345.971 209.659C347.422 210.042 348.893 210.341 350.277 210.357L350.311 210.357L350.345 210.355L350.371 210.354C350.846 210.327 351.383 210.297 351.894 210.214C352.411 210.13 352.97 209.982 353.476 209.679C360.917 205.509 369.125 205.144 376.309 206.975C378.409 207.511 380.48 208.331 382.084 210C382.089 210.006 382.094 210.012 382.098 210.019C382.156 210.094 382.215 210.151 382.258 210.189C382.295 210.222 382.329 210.247 382.354 210.266C384.444 212.627 385.209 216.011 384.919 219.39C384.628 222.78 383.289 225.98 381.412 227.895L381.407 227.9C379.574 229.799 377.353 231.034 374.943 232.208C374.487 232.43 374.021 232.651 373.55 232.874C371.576 233.81 369.507 234.792 367.614 236.107L367.598 236.118L367.583 236.129L367.551 236.153C366.435 236.993 365.247 237.888 364.241 238.922C359.651 243.346 357.138 248.991 354.912 253.991C354.492 254.933 354.083 255.853 353.672 256.737Z" stroke="white" stroke-opacity="0.08" stroke-width="2" stroke-miterlimit="10"/>
<path d="M341.851 285.8L341.849 285.801C337.083 288.141 331.972 288.032 327.493 287.266C324.068 286.654 320.812 285.564 317.484 284.362C316.894 284.148 316.301 283.931 315.704 283.713C312.958 282.708 310.135 281.676 307.169 280.855C303.577 279.783 300.296 279.261 296.889 279.263L296.887 279.263C289.768 279.278 282.884 281.797 275.15 284.627C274.548 284.847 273.941 285.069 273.329 285.292L273.328 285.292C265.347 288.204 258.528 288.084 253.123 286.102C247.715 284.119 243.644 280.245 241.198 275.508C239.418 271.956 238.06 268.351 237.739 264.613L237.739 264.613L237.738 264.604C237.263 259.632 236.65 253.193 237.622 247.122C238.591 241.073 241.109 235.533 246.788 232.175C247.808 231.58 249.353 231.32 251.341 231.309C253.304 231.299 255.54 231.528 257.851 231.786C258.063 231.809 258.276 231.833 258.49 231.857C260.573 232.091 262.695 232.329 264.622 232.391C266.722 232.46 268.745 232.329 270.303 231.661C273.849 230.153 277.217 228.534 280.508 226.951C281.946 226.26 283.37 225.575 284.787 224.91C289.47 222.713 294.135 220.703 299.22 219.241C306.505 217.185 312.492 212.644 318.23 208.046C318.72 207.653 319.208 207.26 319.695 206.868C324.962 202.628 330.09 198.5 336.043 196.045L336.045 196.044C337.091 195.61 338.377 195.563 339.901 195.816C341.422 196.068 343.086 196.603 344.837 197.24C345.479 197.474 346.142 197.725 346.81 197.978C347.923 198.399 349.052 198.826 350.134 199.192C351.881 199.783 353.641 200.265 355.279 200.369L355.301 200.37L355.323 200.371C356.641 200.396 357.855 200.353 359.07 199.702L359.078 199.698L359.086 199.694C368.341 194.522 378.422 194.172 387.074 196.528L387.082 196.53L387.09 196.532C389.642 197.183 392.205 198.199 394.263 200.347C394.365 200.515 394.484 200.627 394.558 200.691L394.582 200.718C397.281 203.775 398.282 208.077 397.959 212.313C397.636 216.557 395.997 220.559 393.646 222.962L393.642 222.966C391.334 225.354 388.534 226.882 385.534 228.34C385.059 228.571 384.577 228.801 384.091 229.032C381.554 230.242 378.91 231.503 376.521 233.255C374.993 234.352 373.602 235.506 372.392 236.803C366.873 242.401 363.821 249.56 361.157 255.809C360.711 256.857 360.275 257.879 359.84 258.864C359.21 260.268 358.585 261.813 357.926 263.445C356.648 266.608 355.239 270.095 353.403 273.501C350.646 278.615 347.052 283.264 341.851 285.8Z" stroke="white" stroke-opacity="0.08" stroke-width="2" stroke-miterlimit="10"/>
<path d="M365.914 261.108L365.912 261.114C365.234 262.685 364.557 264.421 363.841 266.26C362.341 270.11 360.666 274.409 358.439 278.587C355.172 284.713 350.835 290.317 344.449 293.356C338.788 296.007 332.636 295.79 327.191 294.704C323.179 293.868 319.404 292.531 315.578 291.077C314.865 290.807 314.15 290.531 313.431 290.255C310.31 289.054 307.12 287.827 303.769 286.815C299.664 285.534 295.781 284.936 291.937 284.901L291.929 284.901C283.113 284.892 274.682 288.012 264.886 291.636C264.712 291.701 264.538 291.765 264.364 291.829L264.364 291.83C254.679 295.417 246.486 295.251 240.018 292.828C233.545 290.403 228.714 285.686 225.805 280.019C223.642 275.762 222.019 271.395 221.57 266.844L221.57 266.844L221.569 266.835C221.554 266.695 221.539 266.554 221.523 266.412C220.893 260.603 220.07 253.023 221.079 245.828C222.11 238.479 225.027 231.692 231.877 227.608C233.131 226.888 235.029 226.61 237.442 226.646C239.829 226.681 242.55 227.016 245.347 227.383C245.585 227.414 245.823 227.446 246.061 227.477C248.605 227.812 251.187 228.153 253.521 228.27C256.048 228.396 258.45 228.273 260.268 227.491L260.271 227.489C264.351 225.719 268.223 223.831 272.007 221.986C273.917 221.054 275.805 220.133 277.686 219.244C283.319 216.581 288.954 214.169 295.169 212.461L295.173 212.46C303.66 210.089 310.561 204.614 317.195 199.018C317.8 198.508 318.403 197.996 319.004 197.486C325.053 192.355 330.98 187.328 337.937 184.323L337.941 184.321C339.142 183.795 340.639 183.763 342.422 184.118C344.201 184.473 346.153 185.191 348.201 186.042C349.04 186.39 349.913 186.769 350.792 187.151C352 187.676 353.218 188.205 354.373 188.666C356.392 189.471 358.408 190.149 360.259 190.376C361.917 190.628 363.379 190.482 364.708 189.801L364.724 189.792L364.74 189.784C375.672 183.665 387.778 183.367 397.878 186.167C400.956 187.026 404.034 188.254 406.556 190.921C406.593 190.974 406.628 191.016 406.654 191.045C406.675 191.069 406.697 191.092 406.717 191.112L406.719 191.118L406.851 191.268C410.13 194.972 411.336 200.189 410.97 205.299C410.602 210.419 408.669 215.247 405.904 218.117C403.068 221.061 399.663 222.913 396.062 224.658C395.5 224.931 394.931 225.201 394.358 225.473C391.312 226.923 388.166 228.419 385.34 230.523C383.563 231.807 381.982 233.216 380.568 234.659L380.566 234.661C374.195 241.199 370.787 249.427 367.779 256.688C367.147 258.212 366.534 259.694 365.914 261.108Z" stroke="white" stroke-opacity="0.08" stroke-width="2" stroke-miterlimit="10"/>
<path d="M347.17 300.871C354.692 297.395 359.776 290.835 363.571 283.684C366.181 278.765 368.127 273.687 369.85 269.191C370.647 267.113 371.396 265.159 372.141 263.402M347.17 300.871L373.063 263.789M347.17 300.871C340.392 303.998 333.147 303.511 326.877 302.139M347.17 300.871L326.877 302.139M372.141 263.402C372.141 263.401 372.142 263.4 372.142 263.398L373.063 263.789M372.141 263.402C372.141 263.402 372.14 263.403 372.14 263.403L373.063 263.789M372.141 263.402C372.716 262.025 373.291 260.597 373.88 259.134C377.368 250.467 381.356 240.558 388.912 232.657M373.063 263.789C373.647 262.391 374.228 260.949 374.82 259.478C378.314 250.804 382.224 241.097 389.636 233.347M388.912 232.657C388.911 232.658 388.911 232.658 388.911 232.659L389.636 233.347M388.912 232.657C388.912 232.657 388.913 232.656 388.913 232.656L389.636 233.347M388.912 232.657L389.636 233.347M326.877 302.139C322.304 301.124 318.041 299.51 313.74 297.773C313.009 297.477 312.276 297.178 311.54 296.877C307.968 295.419 304.328 293.932 300.489 292.728C295.875 291.239 291.388 290.566 286.974 290.539M326.877 302.139L205.658 268.991C206.236 274.349 208.15 279.562 210.546 284.496C213.916 291.087 219.504 296.643 227.044 299.52C234.58 302.396 244.156 302.628 255.56 298.406C267.096 294.087 276.827 290.46 286.974 290.539M286.974 290.539C286.975 290.539 286.975 290.539 286.975 290.539L286.967 291.539L286.973 290.539C286.974 290.539 286.974 290.539 286.974 290.539ZM418.324 213.307L418.32 213.311L205.658 268.991C205.609 268.541 205.559 268.079 205.507 267.609C204.785 260.997 203.852 252.471 204.879 244.339C205.976 235.647 209.288 227.59 217.329 222.821L217.329 222.821L217.334 222.819C218.805 221.936 221.047 221.615 223.882 221.682C226.686 221.748 229.888 222.183 233.171 222.66C233.484 222.705 233.797 222.751 234.111 222.797C237.065 223.228 240.052 223.664 242.748 223.837C245.701 224.027 248.481 223.916 250.558 223.022C255.378 220.958 259.957 218.714 264.455 216.51C266.579 215.469 268.684 214.437 270.788 213.438C277.373 210.309 284.003 207.464 291.348 205.509L291.35 205.508C301.132 202.886 309.009 196.457 316.569 189.84C317.323 189.18 318.074 188.518 318.823 187.858C325.642 181.849 332.329 175.955 340.203 172.474C341.545 171.901 343.244 171.916 345.283 172.397C347.315 172.876 349.556 173.786 351.902 174.852C352.864 175.289 353.859 175.759 354.86 176.233C356.247 176.889 357.646 177.55 358.978 178.132C361.297 179.146 363.601 180.006 365.704 180.338C367.46 180.624 369.292 180.597 370.784 179.739C383.392 172.675 397.234 172.434 408.936 175.718C412.513 176.779 416.083 178.207 419.057 181.356C419.127 181.473 419.203 181.561 419.257 181.616L419.272 181.659L419.4 181.807C423.2 186.181 424.612 192.319 424.202 198.303C423.791 204.296 421.564 209.948 418.324 213.307ZM419.341 181.7C419.341 181.7 419.338 181.697 419.332 181.69C419.338 181.696 419.341 181.699 419.341 181.7ZM394.449 227.784C394.447 227.785 394.445 227.787 394.443 227.788L395.042 228.59L394.454 227.78C394.452 227.782 394.451 227.783 394.449 227.784Z" stroke="white" stroke-opacity="0.08" stroke-width="2" stroke-miterlimit="10"/>
<path d="M349.735 308.345L349.728 308.348C342.087 311.864 333.647 311.23 326.563 309.575C321.408 308.336 316.621 306.455 311.782 304.465C311.198 304.225 310.613 303.983 310.026 303.74C305.77 301.98 301.434 300.187 296.807 298.769C291.576 297.124 286.62 296.328 281.628 296.308C270.308 296.161 259.42 300.184 246.344 305.029L246.339 305.031C233.245 309.971 222.261 309.705 213.624 306.387C204.979 303.065 198.594 296.651 194.764 289.133L194.761 289.128C191.829 283.456 189.659 277.493 189.077 271.297L189.076 271.292C188.985 270.364 188.884 269.395 188.78 268.391C188.016 261.049 187.06 251.859 188.081 243.047C189.238 233.053 192.916 223.753 202.136 218.256L202.139 218.255C203.778 217.271 206.332 216.944 209.575 217.066C212.78 217.186 216.461 217.731 220.23 218.317C220.529 218.364 220.829 218.411 221.129 218.457C224.583 218.997 228.08 219.543 231.227 219.769C234.614 220.013 237.776 219.906 240.108 218.9C245.672 216.516 250.933 213.917 256.097 211.365C258.506 210.174 260.895 208.994 263.283 207.851C270.816 204.246 278.411 200.978 286.887 198.776L286.89 198.775C297.946 195.859 306.766 188.491 315.237 180.871C316.101 180.093 316.962 179.314 317.821 178.535C325.442 171.629 332.936 164.837 341.833 160.842C343.372 160.159 345.302 160.196 347.601 160.787C349.892 161.377 352.414 162.483 355.053 163.772C356.109 164.288 357.198 164.84 358.292 165.395C359.88 166.201 361.481 167.013 363.017 167.731C365.627 168.951 368.219 169.984 370.599 170.391C372.604 170.816 374.54 170.721 376.258 169.801L376.266 169.797L376.274 169.792C390.695 161.731 406.44 161.589 419.591 165.319C423.683 166.514 427.934 168.204 431.221 171.868L431.305 171.962L431.381 172.013C431.388 172.021 431.398 172.032 431.412 172.049L431.421 172.061C431.469 172.119 431.565 172.234 431.707 172.351C436.039 177.368 437.668 184.375 437.232 191.189C436.793 198.048 434.274 204.524 430.559 208.372L430.55 208.382C426.841 212.323 422.323 214.789 417.555 217.11C416.818 217.468 416.073 217.824 415.325 218.182C411.274 220.117 407.108 222.108 403.364 224.927C401.045 226.674 398.903 228.555 397.073 230.529C388.671 239.44 384.227 250.543 380.319 260.308C379.598 262.111 378.894 263.869 378.188 265.558C377.312 267.631 376.439 269.947 375.509 272.414C373.596 277.489 371.443 283.2 368.541 288.733C364.254 296.906 358.457 304.41 349.735 308.345Z" stroke="white" stroke-opacity="0.08" stroke-width="2" stroke-miterlimit="10"/>
<path d="M326.222 316.927L326.216 316.926C320.493 315.505 315.195 313.398 309.862 311.167C309.113 310.853 308.363 310.537 307.611 310.22C303.027 308.289 298.367 306.326 293.406 304.729C287.632 302.789 282.071 301.918 276.641 301.862L276.637 301.862C264.05 301.774 251.856 306.149 237.381 311.566L237.38 311.567C222.566 317.142 210.197 316.809 200.491 313.038C190.776 309.263 183.634 302.005 179.343 293.562L179.343 293.562L179.339 293.554C176.022 287.173 173.591 280.451 172.879 273.449C172.763 272.287 172.632 271.068 172.496 269.8C171.616 261.598 170.519 251.361 171.583 241.537C172.809 230.215 176.884 219.662 187.296 213.477C189.175 212.363 192.09 212.021 195.758 212.19C199.388 212.356 203.554 213.008 207.81 213.704C208.134 213.757 208.459 213.81 208.785 213.863C212.699 214.505 216.655 215.154 220.207 215.435C224.022 215.737 227.556 215.635 230.142 214.518C236.248 211.893 242.05 209.02 247.765 206.191C250.56 204.806 253.335 203.432 256.114 202.102C264.603 198.042 273.203 194.359 282.812 191.91L282.813 191.91C295.093 188.766 304.862 180.479 314.246 171.856C315.265 170.919 316.279 169.979 317.291 169.041C325.668 161.277 333.922 153.626 343.721 149.122L343.721 149.121C345.392 148.353 347.516 148.413 350.065 149.116C352.602 149.816 355.408 151.109 358.346 152.613C359.54 153.225 360.77 153.879 362.007 154.536C363.758 155.467 365.522 156.405 367.216 157.239C370.131 158.674 373.016 159.895 375.65 160.404L375.66 160.406C377.861 160.81 380.032 160.883 381.906 159.794C398.136 150.743 415.747 150.619 430.362 154.873C434.96 156.273 439.714 158.167 443.462 162.335L443.546 162.428L443.621 162.479C443.628 162.486 443.638 162.498 443.652 162.514L443.661 162.526C443.709 162.583 443.803 162.697 443.944 162.813C448.808 168.54 450.603 176.454 450.102 184.124C449.597 191.839 446.779 199.125 442.659 203.488C438.457 207.881 433.357 210.641 428.002 213.244C427.221 213.624 426.433 214.001 425.641 214.38C421.05 216.576 416.344 218.827 412.128 222.025C409.56 223.96 407.351 226.055 405.218 228.303L405.212 228.309C395.875 238.321 390.991 250.811 386.717 261.74C385.919 263.782 385.141 265.77 384.36 267.676C383.447 269.888 382.528 272.359 381.549 274.995C379.398 280.78 376.953 287.354 373.63 293.703C368.816 302.899 362.272 311.361 352.425 315.777C343.622 319.695 334.134 318.944 326.222 316.927Z" stroke="white" stroke-opacity="0.08" stroke-width="2" stroke-miterlimit="10"/>
<path d="M325.901 324.362L325.899 324.361C319.594 322.716 313.773 320.341 307.942 317.868C307.3 317.596 306.658 317.322 306.015 317.048C300.835 314.841 295.601 312.612 290.04 310.849C283.646 308.753 277.615 307.76 271.607 307.712C257.848 307.555 244.471 312.239 228.478 318.27C211.878 324.503 198.099 324.136 187.312 319.926C176.517 315.714 168.618 307.615 163.852 298.205C160.273 291.063 157.581 283.581 156.74 275.774C156.591 274.305 156.421 272.751 156.242 271.126C155.254 262.14 154.03 251.001 155.104 240.29C156.37 227.663 160.81 215.867 172.415 208.993L172.419 208.991C174.53 207.729 177.798 207.357 181.888 207.561C185.937 207.763 190.585 208.513 195.325 209.313C195.701 209.376 196.077 209.44 196.454 209.504C200.801 210.24 205.185 210.983 209.119 211.315C213.36 211.673 217.267 211.575 220.107 210.348C226.957 207.403 233.427 204.179 239.794 201.007C242.868 199.475 245.918 197.955 248.975 196.484C258.395 191.953 267.961 187.847 278.768 185.128L278.77 185.128C292.32 181.692 303.029 172.468 313.325 162.841C314.449 161.79 315.569 160.734 316.687 159.679C325.868 151.018 334.933 142.466 345.758 137.445C347.606 136.594 349.952 136.687 352.755 137.502C355.546 138.314 358.632 139.795 361.858 141.512C363.189 142.219 364.559 142.977 365.935 143.737C367.839 144.789 369.755 145.848 371.598 146.794C374.796 148.436 377.956 149.839 380.838 150.454C383.287 150.997 385.699 150.964 387.684 149.843C405.468 139.883 424.951 139.773 441.172 144.514C446.228 146.03 451.52 148.21 455.731 152.885L455.815 152.978L455.862 153.009C455.87 153.02 455.879 153.033 455.893 153.052L455.898 153.059C455.929 153.102 455.985 153.18 456.051 153.256C456.099 153.312 456.161 153.377 456.239 153.443C461.671 159.776 463.697 168.575 463.164 177.103C462.628 185.674 459.517 193.786 454.921 198.639C450.257 203.564 444.583 206.638 438.643 209.523C437.77 209.947 436.891 210.367 436.008 210.789C430.922 213.219 425.723 215.704 421.078 219.248L421.07 219.253L421.063 219.259C418.321 221.431 415.758 223.735 413.408 226.257L413.405 226.26C403.214 237.286 397.872 250.976 393.178 263.007C392.25 265.386 391.347 267.699 390.437 269.915L390.436 269.916C389.442 272.344 388.44 275.069 387.37 277.98C385.017 284.383 382.331 291.69 378.653 298.743C373.327 308.958 366.036 318.378 354.985 323.253L354.982 323.255C345.313 327.562 334.629 326.663 325.901 324.362Z" stroke="white" stroke-opacity="0.08" stroke-width="2" stroke-miterlimit="10"/>
<path d="M325.579 331.796L325.586 331.798C335.145 334.462 346.875 335.477 357.704 330.769C369.893 325.456 377.924 315.059 383.788 303.792C387.792 296.097 390.729 288.128 393.303 281.143C394.514 277.856 395.645 274.787 396.769 272.067C397.736 269.676 398.696 267.176 399.683 264.604C404.758 251.38 410.565 236.252 421.858 224.121C424.402 221.349 427.17 218.78 430.321 216.46C435.409 212.561 441.113 209.825 446.706 207.143C447.661 206.685 448.612 206.228 449.557 205.768C456.079 202.589 462.328 199.202 467.471 193.784C472.543 188.441 475.946 179.504 476.525 170.06C477.103 160.641 474.86 150.903 468.882 143.898C468.732 143.747 468.633 143.61 468.568 143.52L468.562 143.511C468.522 143.457 468.498 143.424 468.477 143.399C468.462 143.381 468.448 143.366 468.432 143.351L468.408 143.328L468.386 143.303C463.716 138.127 457.921 135.742 452.397 134.107C434.73 128.921 413.346 128.93 393.748 139.887L393.741 139.891L393.732 139.895C391.491 141.096 388.926 141.084 386.171 140.462C386.17 140.462 386.17 140.462 386.169 140.462L386.39 139.486L325.579 331.796ZM325.579 331.796C318.695 329.927 312.384 327.275 306.045 324.528C305.504 324.293 304.962 324.058 304.42 323.822C298.63 321.306 292.772 318.761 286.465 316.764C279.444 314.508 272.816 313.438 266.369 313.353C251.403 313.042 236.865 318.125 219.358 324.767L219.357 324.767C201.133 331.696 185.977 331.284 174.104 326.626C162.221 321.964 153.527 313.009 148.302 302.676L148.302 302.675C144.36 294.897 141.286 286.707 140.415 277.982L140.415 277.981M325.579 331.796L140.415 277.981M140.415 277.981C140.243 276.286 140.043 274.485 139.832 272.598C138.74 262.787 137.386 250.636 138.513 238.932C139.855 225 144.691 211.946 157.478 204.341C159.829 202.949 163.46 202.562 167.974 202.813C172.448 203.061 177.581 203.918 182.807 204.827C183.209 204.897 183.612 204.968 184.014 205.038C188.821 205.877 193.663 206.723 198.003 207.109C202.67 207.525 206.948 207.432 210.04 206.095L140.415 277.981Z" stroke="white" stroke-opacity="0.08" stroke-width="2" stroke-miterlimit="10"/>
<path d="M325.258 339.231L325.262 339.232C335.642 342.182 348.597 343.427 360.289 338.331L360.29 338.331C373.606 332.539 382.386 321.182 388.778 308.89C393.204 300.377 396.43 291.544 399.239 283.852C400.502 280.396 401.68 277.171 402.844 274.308M325.258 339.231L403.771 274.685M325.258 339.231C317.794 337.138 310.959 334.218 304.113 331.189C303.412 330.879 302.711 330.567 302.009 330.256C295.869 327.529 289.663 324.773 283 322.554L282.995 322.552C275.472 320.091 268.368 318.9 261.344 318.823C244.984 318.617 229.423 324.048 210.372 331.218L210.37 331.219C190.36 338.805 173.786 338.338 160.828 333.231C147.859 328.12 138.408 318.322 132.724 307.065L132.722 307.062C128.401 298.585 125.191 289.591 124.189 280.054C123.993 278.141 123.762 276.101 123.519 273.959C122.309 263.282 120.811 250.07 121.987 237.342C123.396 222.083 128.628 207.773 142.609 199.478C145.202 197.956 149.194 197.551 154.13 197.841C159.026 198.13 164.641 199.085 170.351 200.099C170.809 200.181 171.268 200.262 171.727 200.344C176.962 201.277 182.227 202.215 186.945 202.657C192.041 203.134 196.692 203.055 200.042 201.631L200.046 201.629C208.188 198.121 215.884 194.267 223.472 190.467C227.213 188.593 230.928 186.733 234.658 184.934C245.982 179.47 257.519 174.525 270.594 171.312L270.594 171.312C286.634 167.356 299.23 156.283 311.35 144.648C312.728 143.325 314.1 141.995 315.47 140.667C326.218 130.248 336.861 119.93 349.623 113.882M325.258 339.231L270.355 170.341C287.89 166.017 301.301 153.013 314.774 139.949C325.504 129.544 336.273 119.102 349.195 112.977M402.844 274.308L403.771 274.685M402.844 274.308C402.844 274.309 402.844 274.309 402.844 274.309L403.771 274.685M402.844 274.308C403.944 271.597 405.033 268.759 406.154 265.837C411.648 251.515 417.909 235.191 430.024 221.987L430.033 221.978C432.796 219.045 435.761 216.22 439.242 213.598M403.771 274.685C404.884 271.941 405.982 269.08 407.109 266.144C412.605 251.824 418.788 235.713 430.761 222.663C433.499 219.757 436.422 216.974 439.846 214.396M439.242 213.598C439.241 213.599 439.24 213.6 439.238 213.601L439.846 214.396M439.242 213.598C439.243 213.598 439.244 213.597 439.245 213.597L439.846 214.396M439.242 213.598C444.805 209.342 451 206.373 457.071 203.463C458.125 202.958 459.174 202.455 460.216 201.947C467.307 198.493 474.097 194.803 479.703 188.853L479.703 188.852C485.189 183.04 488.884 173.276 489.507 162.96C490.128 152.67 487.681 142.021 481.127 134.37M439.846 214.396C445.32 210.206 451.411 207.286 457.487 204.373C465.677 200.447 473.841 196.533 480.431 189.539C491.809 177.484 495.443 149.495 481.855 133.683M481.127 134.37C481.139 134.381 481.15 134.392 481.159 134.401L481.855 133.683M481.127 134.37C481.117 134.359 481.107 134.347 481.097 134.335L481.855 133.683M481.127 134.37C481.126 134.369 481.124 134.367 481.123 134.366C480.968 134.218 480.678 133.94 480.49 133.567M481.855 133.683C481.641 133.475 481.426 133.267 481.34 133.015M481.34 133.015L480.598 133.685C480.562 133.646 480.526 133.606 480.49 133.567M481.34 133.015C476.029 127.136 469.523 124.48 463.434 122.621M481.34 133.015L480.394 133.339C480.421 133.418 480.454 133.494 480.49 133.567M480.49 133.567C475.381 127.972 469.131 125.406 463.144 123.578M463.434 122.621L463.148 123.579C463.147 123.579 463.146 123.578 463.144 123.578M463.434 122.621C444.093 116.847 420.549 116.826 398.856 128.936M463.434 122.621L463.142 123.577C463.143 123.578 463.143 123.578 463.144 123.578M463.144 123.578C444.009 117.866 420.757 117.858 399.348 129.807M398.856 128.936L399.353 129.804C399.351 129.805 399.35 129.806 399.348 129.807M398.856 128.936C396.815 130.103 394.244 130.138 391.414 129.416M398.856 128.936L399.344 129.809C399.345 129.809 399.347 129.808 399.348 129.807M399.348 129.807C396.991 131.152 394.123 131.138 391.175 130.387M391.414 129.416L391.183 130.389C391.18 130.389 391.177 130.388 391.175 130.387M391.414 129.416C386.311 128.206 380.255 124.661 374.168 121.099C364.791 115.61 355.341 110.079 349.195 112.977M391.414 129.416L391.167 130.385C391.169 130.386 391.172 130.387 391.175 130.387M391.175 130.387C387.799 129.585 384.079 127.821 380.295 125.756C378.126 124.573 375.874 123.256 373.634 121.945C371.988 120.982 370.349 120.023 368.753 119.123C364.927 116.966 361.258 115.095 357.944 114.051C354.615 113.003 351.819 112.846 349.623 113.882M349.195 112.977L349.624 113.881C349.623 113.881 349.623 113.881 349.623 113.882M349.195 112.977L349.622 113.882C349.622 113.882 349.622 113.882 349.623 113.882" stroke="white" stroke-opacity="0.08" stroke-width="2" stroke-miterlimit="10"/>
<path d="M201.536 338.862C157.751 355.617 128.686 336.932 116.211 312.2C111.436 302.853 107.789 293.026 106.769 282.489C106.547 280.197 106.272 277.727 105.981 275.115C103.151 249.679 98.8362 210.894 127.063 194.093C133.448 190.3 146.427 192.642 159.304 194.965C171.205 197.112 183.018 199.244 189.456 196.501C198.351 192.698 206.733 188.501 215.039 184.342C231.289 176.206 247.248 168.215 266.185 163.602L201.536 338.862ZM201.536 338.862C222.123 331.072 238.699 325.404 256.015 325.677L201.536 338.862ZM324.937 346.665L324.936 346.665C316.889 344.347 309.538 341.181 302.162 337.92C301.601 337.672 301.04 337.423 300.479 337.175C293.67 334.159 286.791 331.111 279.348 328.679L279.344 328.677C271.192 326.056 263.65 324.831 256.035 324.677L256.03 324.677C238.498 324.401 221.753 330.143 201.182 337.927L201.179 337.928C179.478 346.232 161.528 345.72 147.501 340.159C133.462 334.594 123.248 323.931 117.103 311.75L117.101 311.745C112.36 302.463 108.768 292.762 107.764 282.393L107.764 282.392C107.54 280.077 107.263 277.588 106.971 274.965C105.702 263.553 104.149 249.581 105.345 236.096C106.813 219.537 112.409 203.979 127.574 194.952C130.367 193.294 134.696 192.863 140.049 193.191C145.359 193.517 151.461 194.57 157.663 195.686C158.154 195.774 158.644 195.862 159.135 195.951C164.831 196.979 170.558 198.012 175.685 198.503C181.218 199.033 186.247 198.955 189.848 197.421L189.849 197.421C198.771 193.606 207.2 189.386 215.522 185.219C219.487 183.234 223.427 181.261 227.385 179.35C239.678 173.414 252.213 168.035 266.421 164.574C283.744 160.369 297.28 148.36 310.309 135.711C311.803 134.261 313.289 132.803 314.774 131.347C326.313 120.029 337.754 108.809 351.531 102.249C353.873 101.142 356.876 101.337 360.456 102.501C364.02 103.66 367.973 105.718 372.095 108.085C373.82 109.075 375.589 110.129 377.366 111.187C379.777 112.623 382.201 114.066 384.537 115.365C388.621 117.636 392.628 119.58 396.254 120.485L396.262 120.487L396.271 120.489C399.476 121.227 402.372 121.333 404.989 119.904L404.997 119.9C428.216 106.954 453.242 107.104 473.957 113.22C480.563 115.206 487.347 118.058 492.889 124.075C493.077 124.447 493.366 124.724 493.52 124.872C493.521 124.873 493.522 124.874 493.523 124.874C500.609 133.237 503.253 144.782 502.582 155.92C501.909 167.086 497.916 177.657 491.964 184.005C485.946 190.423 478.583 194.426 470.893 198.179C469.773 198.726 468.645 199.268 467.514 199.811C460.918 202.98 454.194 206.209 448.189 210.823L448.183 210.828C444.514 213.698 441.323 216.689 438.353 219.887L438.352 219.889C425.131 234.201 418.404 251.965 412.527 267.484C411.349 270.597 410.204 273.62 409.048 276.506C407.802 279.583 406.543 283.059 405.191 286.788C402.179 295.098 398.711 304.667 393.93 313.886C387.026 327.196 377.499 339.511 362.978 345.763L362.975 345.765C350.157 351.34 336.132 349.899 324.937 346.665Z" stroke="white" stroke-opacity="0.08" stroke-width="2" stroke-miterlimit="10"/>
<path d="M324.617 354.1L324.613 354.099C315.985 351.557 308.112 348.123 300.182 344.615C299.856 344.471 299.529 344.326 299.202 344.182C291.61 340.821 283.934 337.423 275.545 334.765C266.853 331.852 258.581 330.597 250.534 330.407L250.529 330.407C231.823 330.061 213.92 336.2 191.836 344.595L191.834 344.596C168.479 353.512 149.142 352.935 134.028 346.925C118.903 340.911 107.901 329.415 101.298 316.313C96.2953 306.27 92.4432 295.809 91.3101 284.636L91.3099 284.634C91.0608 282.223 90.759 279.635 90.4409 276.907C89.0027 264.574 87.2307 249.377 88.4771 234.716C89.9972 216.838 95.9883 200.023 112.348 190.306C115.383 188.517 120.074 188.072 125.852 188.448C131.587 188.82 138.174 189.98 144.862 191.205C145.378 191.299 145.895 191.394 146.412 191.489C152.567 192.62 158.752 193.756 164.284 194.302C170.244 194.889 175.645 194.815 179.497 193.172L179.499 193.171C189.097 189.061 198.143 184.512 207.077 180.02C211.333 177.88 215.565 175.752 219.818 173.691C233.027 167.289 246.529 161.485 261.936 157.756C280.525 153.259 295.039 140.327 309 126.679C310.642 125.074 312.276 123.459 313.908 121.847C326.225 109.676 338.439 97.6068 353.127 90.5354C355.677 89.3128 358.927 89.5311 362.779 90.8049C366.614 92.073 370.862 94.3251 375.284 96.9117C377.15 98.0037 379.065 99.1663 380.985 100.332C383.554 101.891 386.132 103.457 388.618 104.868C392.99 107.349 397.274 109.47 401.145 110.457C404.576 111.332 407.718 111.336 410.449 109.874L410.457 109.87L410.465 109.865C435.241 96.0127 462.267 96.1365 484.452 102.781L484.455 102.781C491.733 104.941 499.056 108.02 504.944 114.654L504.968 114.682L504.995 114.708C505.077 114.788 505.171 114.889 505.29 115.02C505.39 115.128 505.511 115.261 505.632 115.381C513.299 124.389 516.15 136.851 515.436 148.863C514.72 160.901 510.434 172.3 504.069 179.116L504.068 179.117C497.587 186.067 489.651 190.384 481.376 194.419C480.166 195.01 478.946 195.595 477.723 196.181C470.632 199.584 463.417 203.046 456.983 208.004L456.979 208.008C453.081 211.05 449.561 214.342 446.389 217.8L446.385 217.804C432.473 233.127 425.309 252.045 419.025 268.642C417.704 272.131 416.421 275.518 415.123 278.747L415.123 278.749C413.835 281.968 412.528 285.599 411.126 289.494C407.881 298.509 404.125 308.944 398.92 318.983C391.488 333.319 381.213 346.594 365.564 353.325C351.845 359.21 336.647 357.699 324.617 354.1Z" stroke="white" stroke-opacity="0.08" stroke-width="2" stroke-miterlimit="10"/>
<path d="M324.289 361.533L324.29 361.533C337.137 365.416 353.405 367.123 368.251 360.759L368.252 360.758C385.105 353.567 396.128 339.333 404.068 323.969C409.653 313.162 413.659 301.92 417.112 292.233C418.581 288.11 419.949 284.269 421.297 280.863L421.297 280.862C422.637 277.493 423.963 273.963 425.328 270.326C432.013 252.521 439.657 232.159 454.682 215.623M324.289 361.533L455.422 216.296M324.289 361.533C315.083 358.767 306.72 355.056 298.331 351.249C297.777 350.997 297.223 350.745 296.668 350.493C288.841 346.936 280.939 343.345 272.333 340.466L272.329 340.465C263.012 337.392 254.268 336.015 245.642 335.833L245.639 335.833C225.634 335.462 206.419 341.955 182.945 350.919L182.945 350.92C157.818 360.536 137.078 359.945 120.886 353.507C104.682 347.064 92.9247 334.724 85.8474 320.656C80.4883 309.989 76.3472 298.686 75.0841 286.709C74.8117 284.075 74.4788 281.239 74.1273 278.246C72.5818 265.082 70.6771 248.859 71.9752 233.201C73.5665 214.006 79.9532 195.932 97.5105 185.525L97.5107 185.525C100.779 183.587 105.828 183.118 112.029 183.536C118.186 183.951 125.259 185.22 132.435 186.56C133.002 186.666 133.569 186.772 134.137 186.879C140.729 188.113 147.347 189.353 153.265 189.956C159.654 190.608 165.427 190.544 169.532 188.79L169.533 188.789C179.747 184.411 189.387 179.566 198.915 174.777C203.539 172.452 208.137 170.141 212.761 167.904C226.943 161.041 241.451 154.823 257.993 150.845L257.993 150.845C277.785 146.079 293.212 132.246 308.073 117.609C309.829 115.88 311.576 114.141 313.322 112.402C326.426 99.3552 339.444 86.3942 355.136 78.7743C357.833 77.4799 361.29 77.7375 365.393 79.1274C369.477 80.5109 374.01 82.9502 378.727 85.7466C380.722 86.929 382.767 88.186 384.817 89.4467C387.557 91.131 390.307 92.8216 392.962 94.3491C397.631 97.0351 402.198 99.3349 406.317 100.425L406.326 100.427C409.887 101.335 413.365 101.438 416.22 99.8264M324.289 361.533L406.573 99.458C410.032 100.34 413.204 100.381 415.73 98.9547M454.682 215.623L455.422 216.296M454.682 215.623C454.682 215.623 454.682 215.623 454.681 215.623L455.422 216.296M454.682 215.623C458.058 211.904 461.807 208.441 466.026 205.104L466.031 205.1C472.941 199.712 480.718 195.979 488.368 192.306C489.615 191.707 490.859 191.11 492.095 190.508C500.956 186.189 509.473 181.58 516.432 174.137L516.432 174.137C523.273 166.831 527.819 154.619 528.546 141.72C529.273 128.833 526.177 115.448 517.97 105.767L517.964 105.76C517.86 105.635 517.76 105.526 517.644 105.399C517.534 105.279 517.408 105.142 517.273 104.98M455.422 216.296C458.758 212.621 462.466 209.195 466.646 205.889C473.464 200.572 481.133 196.89 488.787 193.214C498.942 188.337 509.073 183.472 517.162 174.82C531.249 159.775 535.571 124.982 518.733 105.12C518.611 104.974 518.496 104.849 518.382 104.724C518.267 104.599 518.153 104.474 518.031 104.328M517.273 104.98C517.277 104.984 517.28 104.988 517.284 104.992L518.031 104.328M517.273 104.98C517.27 104.976 517.266 104.972 517.263 104.968L518.031 104.328M517.273 104.98C510.929 97.8537 503.109 94.5724 495.366 92.2946L495.358 92.2923C471.705 85.1212 442.808 84.9793 416.22 99.8264M518.031 104.328C511.503 96.9878 503.468 93.6354 495.649 91.3352C471.791 84.1024 442.603 83.9474 415.73 98.9547M416.22 99.8264C416.22 99.826 416.221 99.8257 416.222 99.8254L415.73 98.9547M416.22 99.8264C416.219 99.8268 416.218 99.8273 416.217 99.8277L415.73 98.9547" stroke="white" stroke-opacity="0.08" stroke-width="2" stroke-miterlimit="10"/>
<path d="M427.403 283.184L427.401 283.188C425.99 286.765 424.554 290.8 423.011 295.134C419.331 305.471 415.046 317.508 409.062 329.077C400.59 345.455 388.82 360.648 370.84 368.319C355.095 374.992 337.783 373.174 323.964 368.967C314.178 365.977 305.292 361.998 296.376 357.97L295.688 357.659C287.016 353.739 278.29 349.796 268.738 346.759C258.923 343.483 249.708 341.985 240.508 341.811L240.505 341.811C219.359 341.456 198.963 348.259 173.972 357.836C147.125 368.087 125 367.431 107.737 360.538C90.4627 353.641 77.9494 340.456 70.4126 325.464L70.4118 325.463C64.6666 314.085 60.2679 302.028 59.0027 289.211L59.0026 289.21C58.7017 286.192 58.3232 282.929 57.9226 279.476C56.3057 265.537 54.3297 248.502 55.651 232.047C57.2974 211.542 64.0475 192.22 82.7882 181.081L82.7906 181.079C86.2592 179.004 91.6386 178.514 98.2431 178.974C104.802 179.43 112.345 180.802 119.997 182.249C120.593 182.362 121.189 182.475 121.786 182.588C128.826 183.923 135.893 185.263 142.211 185.92C149.025 186.628 155.168 186.568 159.524 184.705L159.525 184.704C170.416 180.03 180.689 174.851 190.844 169.732C195.766 167.25 200.661 164.782 205.586 162.392C220.7 155.058 236.174 148.416 253.849 144.192C274.923 139.176 291.29 124.408 307.06 108.758C308.928 106.903 310.789 105.036 312.648 103.171C326.546 89.2237 340.364 75.3571 357.075 67.2254L357.075 67.2252C359.946 65.8267 363.615 66.112 367.961 67.6147C372.288 69.1107 377.088 71.7442 382.088 74.7613C384.171 76.0182 386.303 77.3511 388.442 78.6887C391.382 80.5264 394.336 82.3729 397.195 84.0431C402.154 86.9398 407.012 89.4193 411.412 90.6025C415.227 91.7323 418.822 91.7769 421.919 90.0917L421.928 90.0866C450.328 74.2439 480.997 74.528 506.228 82.1022C514.48 84.5864 522.806 88.0747 529.611 95.711L529.635 95.7382L529.661 95.7637C529.83 95.9267 530.036 96.1722 530.291 96.4783L530.294 96.4827C539.019 106.833 542.32 121.134 541.55 134.893C540.78 148.663 535.942 161.701 528.625 169.498L528.622 169.501C521.201 177.477 512.141 182.388 502.712 186.983C501.379 187.633 500.037 188.277 498.691 188.922C490.564 192.821 482.3 196.787 474.916 202.53C470.428 205.963 466.477 209.687 462.905 213.658C447.028 231.108 438.938 252.673 431.847 271.574C430.342 275.586 428.883 279.477 427.403 283.184Z" stroke="white" stroke-opacity="0.08" stroke-width="2" stroke-miterlimit="10"/>
<path d="M484.551 200.33C492.288 194.299 500.953 190.132 509.594 185.976C521.077 180.453 532.52 174.949 541.689 165.121C557.757 147.896 562.654 107.651 542.697 85.3833C535.253 77.0428 526.188 73.1979 517.397 70.5732C490.495 62.4107 457.664 62.0938 427.265 78.9634C419.193 83.4217 406.076 75.1381 392.917 66.8282C379.9 58.6082 366.842 50.3623 358.587 54.3983C340.759 63.0989 326.018 77.9754 311.336 92.7925C292.692 111.607 274.144 130.327 249.49 136.184M484.551 200.33L483.937 199.54C483.937 199.541 483.937 199.541 483.936 199.541M484.551 200.33C459.028 220.181 448.378 248.732 439.199 273.339C437.614 277.587 436.073 281.718 434.507 285.666L484.551 200.33ZM483.936 199.541C491.765 193.439 500.537 189.221 509.175 185.067C510.592 184.386 512.006 183.706 513.412 183.019C523.423 178.132 533.057 172.907 540.957 164.438C548.788 156.045 553.974 141.927 554.704 127.094C555.433 112.272 551.705 96.9321 541.953 86.0507L541.951 86.0492C534.686 77.9093 525.827 74.1337 517.111 71.5314L517.107 71.5301C490.405 63.4284 457.863 63.1266 427.75 79.8378L427.748 79.8387C423.295 82.2986 417.633 81.1818 411.701 78.6445C405.719 76.0855 399.12 71.9285 392.596 67.8085L392.426 67.7011C385.92 63.5927 379.49 59.5321 373.661 56.9755C367.732 54.3747 362.745 53.4781 359.026 55.2967L359.025 55.297C341.362 63.9175 326.749 78.6615 312.05 93.4931C310.07 95.4916 308.087 97.4916 306.096 99.4785C289.398 116.139 272.061 131.849 249.721 137.157M483.936 199.541C458.17 219.582 447.413 248.436 438.242 273.037C436.663 277.272 435.131 281.381 433.578 285.298L433.577 285.3C432.088 289.083 430.571 293.36 428.94 297.959C425.047 308.932 420.503 321.74 414.151 334.047C405.157 351.473 392.646 367.645 373.526 375.753C356.654 382.905 338.27 380.891 323.637 376.4L323.636 376.4C313.286 373.227 303.886 369.002 294.465 364.702C294.033 364.505 293.601 364.307 293.169 364.11C284.191 360.009 275.153 355.88 265.294 352.63L265.294 352.63C230.809 341.28 203.053 349.674 164.982 364.288C136.43 375.216 112.92 374.494 94.5673 367.141C76.2024 359.784 62.8932 345.745 54.8327 329.849L53.9409 330.302L54.8327 329.849C48.7022 317.763 44.0148 304.865 42.5909 291.16C42.2678 287.907 41.8569 284.379 41.4213 280.638C39.7053 265.903 37.6055 247.871 38.974 230.439C40.688 208.608 47.8263 188.007 67.7633 176.177L67.7653 176.176C71.4426 173.983 77.1673 173.483 84.1921 173.992C91.17 174.497 99.202 175.975 107.349 177.529C107.95 177.643 108.552 177.759 109.154 177.874C116.683 179.313 124.243 180.759 130.993 181.469C138.245 182.231 144.766 182.171 149.373 180.199L149.374 180.198C160.881 175.256 171.748 169.78 182.498 164.363C187.788 161.698 193.049 159.047 198.343 156.481C214.43 148.685 230.91 141.629 249.721 137.157M483.936 199.541L148.979 179.279C160.459 174.349 171.278 168.897 182.012 163.489C203.338 152.742 224.327 142.166 249.49 136.184M249.721 137.157C249.721 137.157 249.721 137.157 249.721 137.157L249.49 136.184M249.721 137.157L249.49 136.184" stroke="white" stroke-opacity="0.08" stroke-width="2" stroke-miterlimit="10"/>
</svg>
