<svg width="29" height="29" viewBox="0 0 29 29" fill="none" xmlns="http://www.w3.org/2000/svg">
<circle cx="14.5" cy="14.5" r="14.5" fill="#D9D9D9"/>
<g clip-path="url(#clip0_427_4)">
<path d="M20.7053 10.4066C20.5011 10.4971 20.2911 10.5736 20.0766 10.6356C20.3306 10.3484 20.5242 10.0104 20.6425 9.64052C20.669 9.55761 20.6415 9.46686 20.5733 9.41264C20.5053 9.35838 20.4107 9.35188 20.3358 9.39629C19.8802 9.66652 19.3886 9.86072 18.8732 9.97428C18.354 9.46695 17.6488 9.17822 16.9198 9.17822C15.3809 9.17822 14.129 10.4301 14.129 11.9689C14.129 12.0901 14.1367 12.2106 14.1519 12.3295C12.2423 12.1618 10.4671 11.2232 9.248 9.72787C9.20456 9.67457 9.13763 9.64585 9.0691 9.65134C9.00054 9.65671 8.93894 9.69537 8.9043 9.75479C8.65705 10.1791 8.52633 10.6643 8.52633 11.158C8.52633 11.8304 8.76641 12.4684 9.19051 12.967C9.06156 12.9223 8.93642 12.8665 8.81699 12.8002C8.75287 12.7645 8.67462 12.765 8.61092 12.8016C8.54718 12.8381 8.50721 12.9053 8.50553 12.9787C8.50524 12.9911 8.50524 13.0035 8.50524 13.016C8.50524 14.0197 9.04545 14.9234 9.87137 15.4159C9.80042 15.4088 9.7295 15.3986 9.65905 15.3851C9.58642 15.3712 9.51173 15.3967 9.46275 15.4521C9.41369 15.5074 9.39746 15.5846 9.42006 15.655C9.72577 16.6095 10.5129 17.3115 11.4644 17.5256C10.6752 18.0199 9.7727 18.2788 8.82529 18.2788C8.62761 18.2788 8.42879 18.2672 8.23421 18.2441C8.13755 18.2326 8.04512 18.2897 8.0122 18.3816C7.97929 18.4736 8.01418 18.5761 8.09641 18.6288C9.3135 19.4092 10.7208 19.8217 12.1661 19.8217C15.0074 19.8217 16.7849 18.4819 17.7756 17.3579C19.011 15.9563 19.7195 14.1012 19.7195 12.2683C19.7195 12.1917 19.7184 12.1144 19.716 12.0373C20.2034 11.6701 20.6231 11.2256 20.9646 10.7148C21.0164 10.6372 21.0108 10.5347 20.9507 10.4633C20.8907 10.3918 20.7907 10.3687 20.7053 10.4066Z" fill="#01510E"/>
</g>
<defs>
<clipPath id="clip0_427_4">
<rect width="13" height="13" fill="white" transform="translate(8 8)"/>
</clipPath>
</defs>
</svg>
